<svg width="59" height="59" viewBox="0 0 59 59" fill="none" xmlns="http://www.w3.org/2000/svg">
<g clip-path="url(#clip0_57_629)">
<rect width="59" height="59" fill="white"/>
<circle cx="29.5" cy="29.5" r="29.5" fill="#2A2A2A"/>
<path d="M29.2914 43.6574C26.7013 43.6574 24.1113 43.8124 21.6736 43.6574C18.1694 43.3472 16.7982 42.1067 16.1888 38.385C15.427 34.043 15.1223 29.8561 15.5794 25.5141C15.7317 23.9634 15.8841 22.2576 16.1888 20.7069C16.6459 17.4505 18.0171 16.0548 21.2165 15.2795C22.5877 14.9693 23.8066 14.8142 25.1778 14.9693C28.0725 15.1244 30.9673 15.1244 33.862 14.8142C35.2332 14.6592 36.4521 14.8142 37.8233 14.9693C40.4133 15.2795 42.2416 16.6751 42.5463 19.3113C43.4604 25.8243 44.2222 32.3372 43.0034 38.8502C42.3939 41.9516 41.0227 43.1922 37.9756 43.8125C35.2332 43.9675 32.3385 43.8124 29.2914 43.6574ZM29.9008 22.8779C26.3966 22.7229 23.3495 25.3591 23.0448 28.6156C22.7401 32.6474 25.1778 35.2836 29.2914 35.5937C32.4908 35.7488 35.538 32.9575 35.8427 29.3909C36.1474 26.1344 33.405 23.033 29.9008 22.8779ZM39.3468 20.3968C39.1945 19.4664 38.7374 18.8461 37.6709 18.8461C36.4521 18.8461 35.8427 19.6214 35.8427 20.7069C35.8427 21.7924 36.4521 22.5678 37.6709 22.5678C38.8898 22.4127 39.3468 21.6373 39.3468 20.3968Z" fill="white"/>
</g>
<defs>
<clipPath id="clip0_57_629">
<rect width="59" height="59" fill="white"/>
</clipPath>
</defs>
</svg>
