<svg width="59" height="59" viewBox="0 0 59 59" fill="none" xmlns="http://www.w3.org/2000/svg">
<circle cx="29.5" cy="29.5" r="29.5" fill="#2A2A2A"/>
<path d="M30.5407 44.0009C29.1071 43.8576 27.5301 44.0009 26.0964 43.4275C23.8026 42.4239 21.5088 42.4239 19.2149 43.8576C18.6415 44.1443 17.9247 44.5744 17.3512 43.8576C16.9211 43.4275 17.2078 42.7106 17.3512 42.2805C18.6415 39.4132 17.9247 36.9761 16.7777 34.1088C14.4839 28.5176 14.7706 23.0697 19.2149 18.482C23.6592 14.0377 29.2505 13.3209 35.1284 14.8979C36.9922 15.4714 38.5692 16.6183 40.0028 18.0519C46.8843 25.3635 47.171 37.6929 36.5621 42.854C34.555 43.8576 32.5479 43.8576 30.5407 44.0009ZM19.2149 42.1372C22.2256 39.8434 25.0929 41.4204 27.9602 41.8505C32.1178 42.4239 36.132 42.2806 39.5727 39.1265C43.1568 35.6858 44.1604 29.8078 42.44 25.0768C40.2895 19.1988 35.4151 16.0448 29.9673 16.0448C23.6592 16.0448 17.0645 21.2059 17.3512 27.3706C17.4946 29.8078 17.6379 32.245 18.9282 34.3955C20.3619 36.6893 20.6486 38.9832 19.2149 42.1372Z" fill="white"/>
<path d="M31.401 32.3883C31.5444 32.2449 31.8311 32.1016 31.9745 31.9582C32.5479 31.098 32.8347 29.9511 34.2683 30.2378C35.5586 30.6679 36.7055 31.6715 37.1356 32.9618C37.5657 34.252 36.7055 35.1122 35.8453 35.829C33.9816 37.2627 32.1178 36.8326 30.3975 35.9724C26.5266 33.8219 24.3762 30.2378 23.0859 26.0803C22.6558 24.5033 23.2292 23.213 24.8062 22.3528C25.8098 21.7793 26.67 21.7793 27.2434 22.6395C28.1036 23.7864 29.9674 24.79 28.3904 26.6537C27.6735 27.5139 27.9603 28.3741 28.5337 29.0909C29.2505 30.3812 29.9674 31.6715 31.401 32.3883Z" fill="white"/>
</svg>
